<?xml version="1.0" encoding="iso-8859-1"?>
<!-- Generator: Adobe Illustrator 16.0.0, SVG Export Plug-In . SVG Version: 6.00 Build 0)  -->
<!DOCTYPE svg PUBLIC "-//W3C//DTD SVG 1.1//EN" "http://www.w3.org/Graphics/SVG/1.1/DTD/svg11.dtd">
<svg version="1.1" id="Capa_1" xmlns="http://www.w3.org/2000/svg" xmlns:xlink="http://www.w3.org/1999/xlink" x="0px" y="0px"
	 width="32px" height="32px" viewBox="0 0 32 32" style="enable-background:new 0 0 32 32;" xml:space="preserve">
<g>
	<path d="M23.523,4.563v0.027l-1.936,0.3V4.12L10.519,1.639L0,3.971v1.391l0.628-0.118v23.924l9.84,1.193l1.761-0.242v-5.228
		l2.749-0.161v5.059l1.872-0.227v-4.958l2.461-0.144v4.805l4.859-0.562l0.227-0.03v-4.523l2.023-0.116v4.396l1.389-0.167v-4.323
		l1.84-0.106v4.207l1.733-0.209V7.805L32,7.919V6.345L23.523,4.563z M8.145,10.107l1.696-0.199v1.416l-1.696,0.17V10.107z
		 M1.349,10.923l1.43-0.168v1.299l-1.43,0.144V10.923z M2.778,23.152l-1.43-0.059v-1.275l1.43,0.035V23.152z M2.778,20.906
		l-1.43-0.02v-1.273l1.43-0.008V20.906z M2.791,18.701l-1.43,0.022v-1.274l1.43-0.047V18.701z M2.791,16.528l-1.43,0.063v-1.275
		l1.43-0.086V16.528z M2.791,14.243l-1.43,0.104v-1.275l1.43-0.127V14.243z M2.804,9.88l-1.431,0.184V8.788L2.804,8.58V9.88z
		 M2.804,7.776L1.373,7.997V6.722l1.431-0.246V7.776z M3.543,10.629l1.513-0.178v1.337L3.543,11.94V10.629z M5.057,23.209
		l-1.513-0.061v-1.312l1.513,0.036V23.209z M5.057,20.896l-1.513-0.018v-1.313l1.513-0.007V20.896z M5.069,18.63l-1.513,0.024
		v-1.312l1.513-0.051V18.63z M5.069,16.392l-1.513,0.066v-1.312l1.513-0.092V16.392z M5.069,14.04l-1.513,0.11v-1.311l1.513-0.136
		V14.04z M5.083,9.551L3.569,9.746V8.434l1.514-0.22V9.551z M5.083,7.385L3.569,7.62V6.309l1.514-0.261V7.385z M5.758,10.381
		l1.6-0.188v1.376l-1.6,0.161V10.381z M7.357,23.316l-1.6-0.064v-1.35l1.6,0.039V23.316z M7.357,20.938l-1.6-0.02v-1.35l1.6-0.007
		V20.938z M7.372,18.605l-1.601,0.025v-1.35l1.601-0.052V18.605z M7.372,16.304l-1.601,0.069v-1.349l1.601-0.097V16.304z
		 M7.372,13.885L5.771,14v-1.349l1.601-0.143V13.885z M7.386,9.267L5.785,9.473V8.124l1.601-0.232V9.267z M7.386,7.039L5.785,7.288
		V5.939l1.601-0.275V7.039z M9.841,23.424l-1.696-0.069v-1.388l1.696,0.041V23.424z M9.841,20.974l-1.696-0.021v-1.389l1.696-0.008
		V20.974z M9.855,18.572L8.159,18.6v-1.389l1.696-0.057V18.572z M9.855,16.202l-1.696,0.074v-1.389l1.696-0.103V16.202z
		 M9.855,13.709l-1.696,0.123v-1.388l1.696-0.152V13.709z M9.871,8.954L8.174,9.172V7.784l1.697-0.246V8.954z M9.871,6.66
		L8.174,6.923V5.535l1.697-0.292V6.66z M18.352,8.497l1.416,0.207v1.337l-1.416-0.182V8.497z M18.352,12.936l1.416,0.126v1.337
		l-1.416-0.102V12.936z M19.779,15.247v1.336l-1.416-0.062v-1.36L19.779,15.247z M18.338,17.353l1.418,0.047v1.337l-1.418-0.021
		V17.353z M16.184,8.149l1.496,0.219v1.373l-1.496-0.193V8.149z M16.184,12.709l1.496,0.135v1.372l-1.496-0.107V12.709z
		 M17.689,15.089v1.373l-1.494-0.065v-1.398L17.689,15.089z M16.168,17.25l1.497,0.05v1.373l-1.497-0.024V17.25z M13.963,5.506
		l1.578,0.274v1.41l-1.578-0.248V5.506z M13.934,7.816l1.58,0.231v1.411l-1.58-0.204V7.816z M15.541,10.378v1.41l-1.578-0.158
		v-1.437L15.541,10.378z M13.934,12.505l1.58,0.143v1.41l-1.58-0.114V12.505z M15.527,14.953v1.41l-1.58-0.069v-1.438L15.527,14.953
		z M13.919,17.171l1.581,0.053v1.411l-1.581-0.025V17.171z M11.445,5.078l1.676,0.292v1.452l-1.676-0.263V5.078z M11.43,16.196
		v-1.481l1.677,0.103v1.452L11.43,16.196z M13.077,17.125v1.453l-1.678-0.027v-1.482L13.077,17.125z M13.092,11.524l-1.677-0.169
		V9.874l1.677,0.197V11.524z M11.385,7.425l1.678,0.246v1.453l-1.678-0.217V7.425z M11.385,12.258l1.678,0.151v1.453l-1.678-0.122
		V12.258z M11.398,19.551l1.678,0.008v1.452l-1.678,0.022V19.551z M13.154,23.389l-1.674,0.068v-1.48l1.674-0.039V23.389z
		 M13.919,19.58l1.581,0.007v1.409l-1.581,0.021V19.58z M15.559,23.283l-1.579,0.065v-1.437l1.578-0.039L15.559,23.283
		L15.559,23.283z M16.168,19.593l1.497,0.006v1.373l-1.497,0.021V19.593z M17.7,23.213l-1.495,0.062v-1.397l1.495-0.036V23.213z
		 M17.704,12.009l-1.494-0.15v-1.399l1.494,0.176V12.009z M17.704,7.534L16.21,7.299V5.901l1.494,0.261V7.534z M18.337,19.633
		l1.418,0.005v1.337l-1.418,0.02V19.633z M19.783,23.156l-1.417,0.06v-1.36l1.417-0.035V23.156z M19.793,12.248l-1.416-0.142v-1.361
		l1.416,0.167V12.248z M19.793,7.892l-1.416-0.223v-1.36l1.416,0.247V7.892z M21.618,8.866l1.337,0.197v3.538l-1.337-0.134V8.866z
		 M21.629,13.169l1.337,0.12v3.538l-1.337-0.058V13.169z M21.641,17.421l1.336,0.045v3.536l-1.336,0.02V17.421z M22.979,23.076
		l-1.334,0.057v-1.335l1.334-0.033V23.076z M29.346,10.236l1.051,0.151v1.152l-1.051-0.134V10.236z M29.346,14.051l1.051,0.092
		v1.151l-1.051-0.073V14.051z M30.404,16.026v1.152l-1.051-0.044v-1.17L30.404,16.026z M29.335,17.848l1.052,0.033v1.15
		l-1.052-0.014V17.848z M27.749,9.979l1.101,0.159v1.179l-1.101-0.14V9.979z M27.749,13.885l1.101,0.096v1.18l-1.101-0.078V13.885z
		 M28.857,15.909v1.179l-1.1-0.047v-1.197L28.857,15.909z M27.738,17.771l1.101,0.035v1.18l-1.101-0.017V17.771z M26.128,7.767
		l1.151,0.198v1.207l-1.151-0.179V7.767z M26.105,9.739l1.153,0.167v1.206l-1.153-0.146V9.739z M27.279,11.897v1.206l-1.151-0.113
		v-1.226L27.279,11.897z M26.105,13.738l1.154,0.101v1.206l-1.152-0.081v-1.226H26.105z M27.27,15.812v1.206l-1.152-0.049v-1.226
		L27.27,15.812z M26.096,17.717l1.153,0.037v1.205l-1.153-0.016V17.717z M24.305,7.463l1.213,0.209v1.237l-1.213-0.188V7.463z
		 M24.294,16.902v-1.258l1.212,0.071v1.237L24.294,16.902z M25.484,17.683v1.237l-1.213-0.018v-1.259L25.484,17.683z M25.495,12.913
		l-1.212-0.12v-1.258l1.212,0.141V12.913z M24.262,9.456l1.213,0.176v1.237l-1.213-0.154V9.456z M24.262,13.56l1.213,0.107v1.237
		l-1.213-0.086V13.56z M24.271,19.752l1.213,0.003v1.237l-1.213,0.018V19.752z M25.541,23.017L24.33,23.07v-1.259l1.211-0.03V23.017
		z M26.096,19.771l1.153,0.003v1.206l-1.153,0.018V19.771z M27.292,22.937l-1.151,0.05v-1.226l1.151-0.03V22.937z M27.738,19.779
		l1.101,0.002v1.178l-1.101,0.019V19.779z M28.865,22.884l-1.1,0.047v-1.197l1.1-0.028V22.884z M28.868,13.263l-1.099-0.108v-1.197
		l1.099,0.128V13.263z M28.868,9.421L27.77,9.25V8.053l1.1,0.189L28.868,9.421L28.868,9.421z M29.335,19.808l1.052,0.002v1.152
		l-1.052,0.017V19.808z M30.407,22.842l-1.05,0.046v-1.17l1.05-0.027V22.842z M30.414,13.44l-1.051-0.103v-1.17l1.051,0.121V13.44z
		 M30.414,9.686l-1.051-0.162v-1.17l1.051,0.181V9.686z"/>
</g>
<g>
</g>
<g>
</g>
<g>
</g>
<g>
</g>
<g>
</g>
<g>
</g>
<g>
</g>
<g>
</g>
<g>
</g>
<g>
</g>
<g>
</g>
<g>
</g>
<g>
</g>
<g>
</g>
<g>
</g>
</svg>
